<svg version="1" xmlns="http://www.w3.org/2000/svg" width="1333.333" height="1333.333" viewBox="0 0 1000.000000 1000.000000"><path d="M81.7 1.6C62.4 5.1 44.6 14.5 30 29 16.3 42.5 8.2 56.4 2.7 75.9L.5 83.5.2 496C0 952.2-.5 916.7 6.4 935.1c5.1 13.7 11.8 24 22.6 34.9 13.5 13.7 27.4 21.8 46.9 27.3l7.6 2.2 412.5.3c456.2.2 420.7.7 439.1-6.2 13.7-5.1 24-11.8 34.9-22.6 13.7-13.5 21.8-27.4 27.3-46.9l2.2-7.6.3-412.5c.2-456.2.7-420.7-6.2-439.1-5.1-13.7-11.8-24-22.6-34.9-13.5-13.7-27.4-21.8-46.9-27.3L916.5.5 503 .3C150.4.2 88.4.4 81.7 1.6zm424.9 347.5c34.3 4.8 62 23.9 74.5 51.5 3.7 8 6.9 21.2 6.9 28.1v5.3h-36.8l-.7-6.7c-2.6-24.4-16.5-40-41.1-46.3-9.6-2.5-31.3-2.7-41.9-.5-25 5.3-40.5 24.7-38.1 47.8 2 19.7 17.9 32.8 53.6 44.2 37 11.8 42.8 13.8 52.4 18.4 26.1 12.3 42.6 28 49.1 46.8 3.4 9.6 4.8 20.3 4.2 30.4-1.2 18.8-6.6 30.9-19.7 44-13.3 13.4-26.9 20.3-49.2 25-13.8 2.9-41.8 3.2-55.2.6-31.3-6.3-55.5-20.6-69.1-41.1-7.7-11.7-11.1-21.4-13-37.4l-.6-5.2h37.7l1 8c2 14.5 10.3 27.5 22.6 35.4 12.6 8 27.2 11.6 46.8 11.6 20.4 0 34-3.5 44.9-11.5 10.9-8 16.1-19 16.1-33.8 0-25.5-12.4-36.5-58-51.3-30.2-9.7-39.4-13.1-50.5-18.4-31.1-14.8-46.9-33.6-50.5-60-1.3-9.6-.1-22.4 3-31.4 9.5-27.7 37.7-48.5 72.5-53.5 8.7-1.2 30.1-1.3 39.1 0zM336 454.8c0 105.6-.2 112.9-4.1 127.1-6.5 24.1-25.2 43.7-49.6 52.2-29.9 10.4-70.5 6.4-93.4-9.2-19.8-13.4-29.8-32.3-32.3-60.7l-.6-6.2h38v3.8c0 18 9.8 34.7 24.4 41.6 9.1 4.3 15.3 5.6 27.4 5.6 21.6 0 38-9.4 46.2-26.5 6.1-12.8 6-9.9 6-125.3V352h38v102.8zM695.5 406c18.7 29.7 34.2 54 34.5 54 .3 0 15.6-24.1 34-53.6s34-53.8 34.5-54c.6-.3 10.5-.3 22.1-.2l21.1.3-44.4 69.5C773 460.2 753 492 753 492.6c0 .6 20.5 33 45.5 72l45.5 70.9-21.7.3c-16.5.2-22-.1-22.8-1-.7-.7-16.4-25.5-35-55.1-18.6-29.5-34.1-53.7-34.5-53.7-.4 0-16.4 24.7-35.6 55l-34.8 55h-21.8c-12 0-21.8-.2-21.8-.4 0-.3 20.4-32.1 45.2-70.8 24.9-38.7 45.2-71.2 45.2-72.3 0-1.5-62.8-101-86.9-137.9l-1.7-2.6h43.7l34 54z"/></svg>